<svg width="175" height="55" xmlns="http://www.w3.org/2000/svg"><g fill="none" fill-rule="evenodd"><path d="M12.672 37.576c6.384 0 11.664-2.736 11.664-8.352 0-3.984-2.688-5.664-8.448-6.72l-4.416-.816c-2.112-.384-2.928-.96-2.928-1.92 0-1.248 1.344-1.92 3.936-1.92 2.16 0 3.984.48 4.464 2.208l6.144-2.256c-1.776-3.744-6-5.28-10.56-5.28-5.904 0-10.944 2.544-10.944 7.536 0 3.984 3.168 6.336 7.776 7.104l4.272.72c2.736.48 3.696 1.152 3.696 2.16 0 1.488-2.16 2.208-4.512 2.208-2.736 0-4.896-.96-5.616-2.976l-6.192 2.256c1.824 3.984 6.096 6.048 11.664 6.048zm26.304 0c3.792 0 8.208-1.44 10.656-5.76l-5.952-2.16c-.816 1.392-2.256 2.256-4.272 2.256-2.592 0-5.184-1.728-5.184-6.912 0-5.04 2.544-6.816 5.184-6.816 1.824 0 3.456.768 4.224 2.784l6.096-2.208c-2.208-4.704-6.672-6.24-10.752-6.24-7.248 0-12.192 4.944-12.192 12.432 0 7.536 4.32 12.624 12.192 12.624zm20.736 0c3.408 0 6.192-.96 7.968-3.456l.864 2.88h6.768c-.48-2.064-.816-6.192-.816-9.312v-5.232c0-7.2-3.792-9.936-10.56-9.936-5.472 0-9.312 2.4-10.896 5.568l6.144 2.208c.48-1.92 2.112-2.832 4.128-2.832 2.544 0 3.984 1.008 3.984 3.744v.912c-9.216.672-15.792 2.64-15.792 8.448 0 4.32 3.696 7.008 8.208 7.008zm2.688-4.992c-1.92 0-3.36-1.008-3.36-2.544 0-2.496 3.36-3.168 8.4-3.6v.576c0 4.368-2.16 5.568-5.04 5.568zM86.592 37V24.76c0-4.32 1.344-6.576 4.416-6.576 3.504 0 3.648 2.784 3.648 6.144V37h7.296V22.504c0-6.432-1.872-9.984-8.016-9.984-3.648 0-6.288 2.064-7.344 3.84l-.912-3.168h-6.384V37h7.296zm31.104.576c3.792 0 8.208-1.44 10.656-5.76l-5.952-2.16c-.816 1.392-2.256 2.256-4.272 2.256-2.592 0-5.184-1.728-5.184-6.912 0-5.04 2.544-6.816 5.184-6.816 1.824 0 3.456.768 4.224 2.784l6.096-2.208c-2.208-4.704-6.672-6.24-10.752-6.24-7.248 0-12.192 4.944-12.192 12.432 0 7.536 4.32 12.624 12.192 12.624zm25.824 0c3.888 0 7.92-1.68 10.416-5.328l-5.808-2.112c-.912 1.056-2.544 1.776-4.8 1.776-2.688 0-5.28-1.632-5.52-4.992h17.616c.48-8.4-4.368-14.4-12.192-14.4-6.96 0-12.768 4.848-12.768 12.432 0 7.872 5.328 12.624 13.056 12.624zm5.136-14.976h-10.848c.432-3.264 2.88-4.656 5.616-4.656 2.832 0 5.136 1.584 5.232 4.656zm17.52 14.4V25c0-3.792 1.92-5.328 5.472-5.328.672 0 1.2.048 1.968.144V12.52c-3.648-.192-6.192 1.2-7.68 5.04l-1.296-4.368h-5.76V37h7.296zM4.325 53c1.749 0 2.635-1.15 2.635-2.3a2.19 2.19 0 00-1.186-1.953 2.35 2.35 0 00.839-1.761c0-1.018-.743-1.989-2.48-1.989H.91V53h3.415zm-.072-4.576H2.037v-2.48h2.216c.803 0 1.222.635 1.222 1.258 0 .61-.407 1.222-1.222 1.222zm.192 3.63H2.037V49.31h2.396c.91 0 1.365.671 1.365 1.354 0 .695-.467 1.39-1.353 1.39zM9.26 53v-2.552c0-1.581.539-2.444 2.168-2.444v-1.042c-.994 0-1.701.48-2.12 1.198l-.324-1.102h-.73V53H9.26zm5.594.144c1.114 0 1.929-.491 2.36-1.186l-.97-.288c-.276.36-.719.587-1.39.587-.73 0-1.785-.455-1.833-1.953H17.6c.12-1.7-.875-3.342-2.768-3.342-1.629 0-2.887 1.198-2.887 3.079 0 1.749 1.042 3.103 2.911 3.103zm1.677-3.642h-3.498c.096-1.198.899-1.677 1.797-1.677 1.054 0 1.69.838 1.701 1.677zm3.918 3.642c1.042 0 1.665-.36 2.024-.959l.24.815h.923c-.108-.563-.192-1.246-.204-2.24l-.012-1.39c-.012-1.665-.719-2.408-2.36-2.408-1.066 0-1.953.527-2.276 1.438l.97.287c.132-.575.599-.922 1.318-.922.958 0 1.378.563 1.342 1.57-2.432.275-4.014.682-4.014 2.096 0 1.09.923 1.713 2.049 1.713zm.216-.803c-.72 0-1.15-.371-1.15-.934 0-.815 1.161-1.079 2.982-1.27v.371c0 1.402-.898 1.833-1.832 1.833zm6.445.803c1.234 0 2.42-.647 2.42-1.773 0-2.528-3.774-1.342-3.774-2.78 0-.515.587-.79 1.198-.79.563 0 1.15.227 1.354.706l.946-.347c-.36-.827-1.294-1.21-2.228-1.21-1.15 0-2.288.587-2.288 1.653 0 2.372 3.773 1.174 3.773 2.804 0 .539-.694.886-1.401.886-.66 0-1.342-.287-1.522-.994l-.97.36c.395 1.018 1.461 1.485 2.492 1.485zM33.292 53v-.887h-.539c-.536 0-.603-.135-.61-.65v-3.602h1.15v-.803h-1.15V45.56h-1.007v1.498H30.13v.803h1.006v3.653c0 1.234.264 1.486 1.402 1.486h.754zm8.063.144c1.414 0 2.6-.623 3.175-1.81l-.983-.359c-.371.731-1.078 1.222-2.12 1.222-1.498 0-2.552-1.198-2.552-3.21 0-2.085 1.102-3.187 2.516-3.187 1.042 0 1.749.503 2.108 1.222l.983-.36c-.551-1.161-1.69-1.808-3.031-1.808-2.264 0-3.726 1.64-3.726 4.133 0 2.432 1.342 4.157 3.63 4.157zm6.134 0c1.042 0 1.665-.36 2.024-.959l.24.815h.922c-.107-.563-.191-1.246-.203-2.24l-.012-1.39c-.012-1.665-.719-2.408-2.36-2.408-1.067 0-1.953.527-2.276 1.438l.97.287c.132-.575.599-.922 1.318-.922.958 0 1.377.563 1.341 1.57-2.431.275-4.013.682-4.013 2.096 0 1.09.923 1.713 2.049 1.713zm.215-.803c-.718 0-1.15-.371-1.15-.934 0-.815 1.162-1.079 2.983-1.27v.371c0 1.402-.898 1.833-1.833 1.833zm5.427.659v-3.223c0-1.27.6-1.952 1.57-1.952 1.15 0 1.306.802 1.306 1.713V53h1.006v-3.762c0-1.353-.527-2.276-1.965-2.276-1.006 0-1.581.431-1.917.994l-.263-.898h-.743V53h1.006zm7.92.144c1.053 0 1.928-.563 2.371-1.33l-.922-.335a1.618 1.618 0 01-1.414.778c-.886 0-1.713-.719-1.713-2.216 0-1.498.815-2.192 1.713-2.192.611 0 1.126.311 1.39.79l.922-.335a2.5 2.5 0 00-2.24-1.342c-1.761 0-2.875 1.318-2.875 3.09 0 1.798 1.066 3.092 2.767 3.092zm6.133 0c1.114 0 1.929-.491 2.36-1.186l-.97-.288c-.276.36-.72.587-1.39.587-.73 0-1.785-.455-1.833-1.953h4.576c.12-1.7-.874-3.342-2.767-3.342-1.63 0-2.887 1.198-2.887 3.079 0 1.749 1.042 3.103 2.91 3.103zm1.677-3.642h-3.498c.096-1.198.898-1.677 1.797-1.677 1.054 0 1.69.838 1.701 1.677zM72.12 53v-2.552c0-1.581.539-2.444 2.168-2.444v-1.042c-.994 0-1.701.48-2.12 1.198l-.324-1.102h-.73V53h1.006zm8.673 0c2.54 0 4.373-.946 4.373-4.013 0-3.043-1.833-3.99-4.373-3.99h-2.18V53h2.18zm-.024-.946h-1.03v-6.11h1.03c1.653 0 3.247.335 3.247 3.043 0 2.731-1.594 3.067-3.247 3.067zm8.362 1.09c1.114 0 1.929-.491 2.36-1.186l-.97-.288c-.276.36-.719.587-1.39.587-.73 0-1.785-.455-1.833-1.953h4.577c.12-1.7-.875-3.342-2.768-3.342-1.629 0-2.887 1.198-2.887 3.079 0 1.749 1.042 3.103 2.911 3.103zm1.677-3.642H87.31c.096-1.198.899-1.677 1.797-1.677 1.054 0 1.69.838 1.701 1.677zM95.624 53v-.887h-.539c-.536 0-.604-.135-.61-.65v-3.602h1.15v-.803h-1.15V45.56h-1.007v1.498h-1.006v.803h1.006v3.653c0 1.234.264 1.486 1.402 1.486h.754zm3.846.144c1.114 0 1.929-.491 2.36-1.186l-.97-.288c-.276.36-.72.587-1.39.587-.73 0-1.785-.455-1.833-1.953h4.576c.12-1.7-.874-3.342-2.767-3.342-1.63 0-2.887 1.198-2.887 3.079 0 1.749 1.042 3.103 2.91 3.103zm1.677-3.642H97.65c.096-1.198.898-1.677 1.797-1.677 1.054 0 1.69.838 1.701 1.677zm4.636 3.642c1.055 0 1.93-.563 2.372-1.33l-.922-.335a1.618 1.618 0 01-1.414.778c-.886 0-1.713-.719-1.713-2.216 0-1.498.815-2.192 1.713-2.192.611 0 1.126.311 1.39.79l.922-.335a2.5 2.5 0 00-2.24-1.342c-1.76 0-2.875 1.318-2.875 3.09 0 1.798 1.066 3.092 2.767 3.092zm6.17-.144v-.887h-.539c-.537 0-.604-.135-.61-.65l-.001-3.602h1.15v-.803h-1.15V45.56h-1.006v1.498h-1.007v.803h1.007v3.653c0 1.234.263 1.486 1.401 1.486h.755zm2.348-7.068a.75.75 0 10.011-1.497.75.75 0 00-.01 1.497zm.503 7.068v-5.942h-1.833v.803h.827V53h1.006zm4.265.144c1.378 0 2.851-.947 2.851-3.091 0-2.145-1.473-3.09-2.85-3.09-1.366 0-2.852.945-2.852 3.09 0 2.144 1.486 3.09 2.851 3.09zm0-.887c-.85 0-1.773-.67-1.773-2.204 0-1.534.923-2.204 1.773-2.204.863 0 1.773.67 1.773 2.204 0 1.533-.91 2.204-1.773 2.204zm5.152.743v-3.223c0-1.27.599-1.952 1.569-1.952 1.15 0 1.306.802 1.306 1.713V53h1.006v-3.762c0-1.353-.527-2.276-1.965-2.276-1.006 0-1.58.431-1.916.994l-.264-.898h-.743V53h1.007zm9.368 0l.611-1.75h3.642l.61 1.75h1.199l-2.995-8.015h-1.258L132.391 53h1.198zm3.905-2.72h-2.947l1.474-4.157 1.473 4.158zm5.14 2.864c1.234 0 2.42-.647 2.42-1.773 0-2.528-3.774-1.342-3.774-2.78 0-.515.587-.79 1.198-.79.563 0 1.15.227 1.354.706l.946-.347c-.36-.827-1.294-1.21-2.228-1.21-1.15 0-2.288.587-2.288 1.653 0 2.372 3.774 1.174 3.774 2.804 0 .539-.695.886-1.402.886-.659 0-1.342-.287-1.522-.994l-.97.36c.395 1.018 1.462 1.485 2.492 1.485zm5.642 0c1.234 0 2.42-.647 2.42-1.773 0-2.528-3.773-1.342-3.773-2.78 0-.515.587-.79 1.198-.79.563 0 1.15.227 1.353.706l.947-.347c-.36-.827-1.294-1.21-2.228-1.21-1.15 0-2.289.587-2.289 1.653 0 2.372 3.774 1.174 3.774 2.804 0 .539-.695.886-1.402.886-.658 0-1.341-.287-1.521-.994l-.97.36c.395 1.018 1.461 1.485 2.491 1.485zm4.649-7.212a.75.75 0 10.011-1.497.75.75 0 00-.011 1.497zm.503 7.068v-5.942h-1.833v.803h.827V53h1.006zm4.36 0v-.887h-.539c-.575 0-.61-.155-.61-.766V47.86h1.15v-.803h-1.15V45.56h-1.007v1.498h-1.006v.803h1.006v3.653c0 1.234.264 1.486 1.402 1.486h.755zm2.984.144c1.042 0 1.665-.36 2.024-.959l.24.815h.922c-.108-.563-.191-1.246-.203-2.24l-.012-1.39c-.012-1.665-.72-2.408-2.36-2.408-1.067 0-1.953.527-2.277 1.438l.97.287c.133-.575.6-.922 1.319-.922.958 0 1.377.563 1.341 1.57-2.432.275-4.013.682-4.013 2.096 0 1.09.922 1.713 2.049 1.713zm.215-.803c-.719 0-1.15-.371-1.15-.934 0-.815 1.162-1.079 2.983-1.27v.371c0 1.402-.898 1.833-1.833 1.833zm5.427.659v-3.223c0-1.27.6-1.952 1.57-1.952 1.15 0 1.305.802 1.305 1.713V53h1.007v-3.762c0-1.353-.527-2.276-1.965-2.276-1.006 0-1.581.431-1.917.994l-.263-.898h-.743V53h1.006zm8.099 0v-.887h-.54c-.574 0-.61-.155-.61-.766V47.86h1.15v-.803h-1.15V45.56h-1.007v1.498h-1.006v.803h1.006v3.653c0 1.234.264 1.486 1.402 1.486h.755z" fill="#000" fill-rule="nonzero"/><path d="M0 0h175v55H0z"/></g></svg>
