<?xml version="1.0" encoding="UTF-8"?>
<svg width="175px" height="55px" viewBox="0 0 175 55" version="1.1" xmlns="http://www.w3.org/2000/svg" xmlns:xlink="http://www.w3.org/1999/xlink">
    <title>Logo Copy 3</title>
    <g id="Page-1" stroke="none" stroke-width="1" fill="none" fill-rule="evenodd">
        <g id="Logo-Copy-3">
            <path d="M12.672,37.576 C19.056,37.576 24.336,34.84 24.336,29.224 C24.336,25.24 21.648,23.56 15.888,22.504 L11.472,21.688 C9.36,21.304 8.544,20.728 8.544,19.768 C8.544,18.52 9.888,17.848 12.48,17.848 C14.64,17.848 16.464,18.328 16.944,20.056 L23.088,17.8 C21.312,14.056 17.088,12.52 12.528,12.52 C6.624,12.52 1.584,15.064 1.584,20.056 C1.584,24.04 4.752,26.392 9.36,27.16 L13.632,27.88 C16.368,28.36 17.328,29.032 17.328,30.04 C17.328,31.528 15.168,32.248 12.816,32.248 C10.08,32.248 7.92,31.288 7.2,29.272 L1.008,31.528 C2.832,35.512 7.104,37.576 12.672,37.576 Z M38.976,37.576 C42.768,37.576 47.184,36.136 49.632,31.816 L43.68,29.656 C42.864,31.048 41.424,31.912 39.408,31.912 C36.816,31.912 34.224,30.184 34.224,25 C34.224,19.96 36.768,18.184 39.408,18.184 C41.232,18.184 42.864,18.952 43.632,20.968 L49.728,18.76 C47.52,14.056 43.056,12.52 38.976,12.52 C31.728,12.52 26.784,17.464 26.784,24.952 C26.784,32.488 31.104,37.576 38.976,37.576 Z M59.712,37.576 C63.12,37.576 65.904,36.616 67.68,34.12 L68.544,37 L75.312,37 C74.832,34.936 74.496,30.808 74.496,27.688 L74.496,22.456 C74.496,15.256 70.704,12.52 63.936,12.52 C58.464,12.52 54.624,14.92 53.04,18.088 L59.184,20.296 C59.664,18.376 61.296,17.464 63.312,17.464 C65.856,17.464 67.296,18.472 67.296,21.208 L67.296,22.12 C58.08,22.792 51.504,24.76 51.504,30.568 C51.504,34.888 55.2,37.576 59.712,37.576 Z M62.4,32.584 C60.48,32.584 59.04,31.576 59.04,30.04 C59.04,27.544 62.4,26.872 67.44,26.44 L67.44,27.016 C67.44,31.384 65.28,32.584 62.4,32.584 Z M86.592,37 L86.592,24.76 C86.592,20.44 87.936,18.184 91.008,18.184 C94.512,18.184 94.656,20.968 94.656,24.328 L94.656,37 L101.952,37 L101.952,22.504 C101.952,16.072 100.08,12.52 93.936,12.52 C90.288,12.52 87.648,14.584 86.592,16.36 L85.68,13.192 L79.296,13.192 L79.296,37 L86.592,37 Z M117.696,37.576 C121.488,37.576 125.904,36.136 128.352,31.816 L122.4,29.656 C121.584,31.048 120.144,31.912 118.128,31.912 C115.536,31.912 112.944,30.184 112.944,25 C112.944,19.96 115.488,18.184 118.128,18.184 C119.952,18.184 121.584,18.952 122.352,20.968 L128.448,18.76 C126.24,14.056 121.776,12.52 117.696,12.52 C110.448,12.52 105.504,17.464 105.504,24.952 C105.504,32.488 109.824,37.576 117.696,37.576 Z M143.52,37.576 C147.408,37.576 151.44,35.896 153.936,32.248 L148.128,30.136 C147.216,31.192 145.584,31.912 143.328,31.912 C140.64,31.912 138.048,30.28 137.808,26.92 L155.424,26.92 C155.904,18.52 151.056,12.52 143.232,12.52 C136.272,12.52 130.464,17.368 130.464,24.952 C130.464,32.824 135.792,37.576 143.52,37.576 Z M148.656,22.6 L137.808,22.6 C138.24,19.336 140.688,17.944 143.424,17.944 C146.256,17.944 148.56,19.528 148.656,22.6 Z M166.176,37 L166.176,25 C166.176,21.208 168.096,19.672 171.648,19.672 C172.32,19.672 172.848,19.72 173.616,19.816 L173.616,12.52 C169.968,12.328 167.424,13.72 165.936,17.56 L164.64,13.192 L158.88,13.192 L158.88,37 L166.176,37 Z" id="scancer" fill="#000000" fill-rule="nonzero"></path>
            <path d="M4.32478,53 C6.07386,53 6.96038,51.84992 6.96038,50.69984 C6.96038,49.93312 6.56504,49.1664 5.77436,48.7471 C6.31346,48.29186 6.61296,47.62098 6.61296,46.98604 C6.61296,45.96774 5.8702,44.99736 4.1331,44.99736 L0.91048,44.99736 L0.91048,53 L4.32478,53 Z M4.2529,48.42364 L2.0366,48.42364 L2.0366,45.94378 L4.2529,45.94378 C5.05556,45.94378 5.47486,46.57872 5.47486,47.20168 C5.47486,47.81266 5.06754,48.42364 4.2529,48.42364 Z M4.44458,52.05358 L2.0366,52.05358 L2.0366,49.31016 L4.4326,49.31016 C5.34308,49.31016 5.79832,49.98104 5.79832,50.6639 C5.79832,51.35874 5.3311,52.05358 4.44458,52.05358 Z M9.26054,53 L9.26054,50.44826 C9.26054,48.8669 9.79964,48.00434 11.42892,48.00434 L11.42892,46.96208 C10.43458,46.96208 9.72776,47.44128 9.30846,48.16008 L8.985,47.05792 L8.25422,47.05792 L8.25422,53 L9.26054,53 Z M14.8552,53.14376 C15.96934,53.14376 16.78398,52.65258 17.21526,51.95774 L16.24488,51.67022 C15.96934,52.02962 15.52608,52.25724 14.8552,52.25724 C14.12442,52.25724 13.07018,51.802 13.02226,50.3045 L17.59862,50.3045 C17.71842,48.60334 16.72408,46.96208 14.83124,46.96208 C13.20196,46.96208 11.94406,48.16008 11.94406,50.04094 C11.94406,51.79002 12.98632,53.14376 14.8552,53.14376 Z M16.5324,49.50184 L13.03424,49.50184 C13.13008,48.30384 13.93274,47.82464 14.83124,47.82464 C15.88548,47.82464 16.52042,48.66324 16.5324,49.50184 Z M20.44986,53.14376 C21.49212,53.14376 22.11508,52.78436 22.47448,52.18536 L22.71408,53 L23.63654,53 C23.52872,52.43694 23.44486,51.75408 23.43288,50.75974 L23.4209,49.37006 C23.40892,47.70484 22.7021,46.96208 21.06084,46.96208 C19.99462,46.96208 19.1081,47.4892 18.78464,48.39968 L19.75502,48.6872 C19.8868,48.11216 20.35402,47.76474 21.07282,47.76474 C22.03122,47.76474 22.45052,48.3278 22.41458,49.33412 C19.98264,49.60966 18.40128,50.01698 18.40128,51.43062 C18.40128,52.5208 19.32374,53.14376 20.44986,53.14376 Z M20.6655,52.3411 C19.9467,52.3411 19.51542,51.96972 19.51542,51.40666 C19.51542,50.59202 20.67748,50.32846 22.49844,50.13678 L22.49844,50.50816 C22.49844,51.90982 21.59994,52.3411 20.6655,52.3411 Z M27.11074,53.14376 C28.34468,53.14376 29.5307,52.49684 29.5307,51.37072 C29.5307,48.84294 25.757,50.02896 25.757,48.59136 C25.757,48.07622 26.34402,47.80068 26.955,47.80068 C27.51806,47.80068 28.10508,48.0283 28.30874,48.5075 L29.25516,48.16008 C28.89576,47.33346 27.96132,46.9501 27.02688,46.9501 C25.8768,46.9501 24.7387,47.53712 24.7387,48.60334 C24.7387,50.97538 28.5124,49.77738 28.5124,51.40666 C28.5124,51.94576 27.81756,52.29318 27.11074,52.29318 C26.45184,52.29318 25.76898,52.00566 25.58928,51.29884 L24.6189,51.65824 C25.01424,52.67654 26.08046,53.14376 27.11074,53.14376 Z M33.29242,53 L33.29242,52.11348 L32.75332,52.11348 C32.216616,52.11348 32.149528,51.9778132 32.1429683,51.4629749 L32.14234,47.86058 L33.29242,47.86058 L33.29242,47.05792 L32.14234,47.05792 L32.14234,45.56042 L31.13602,45.56042 L31.13602,47.05792 L30.1297,47.05792 L30.1297,47.86058 L31.13602,47.86058 L31.13602,51.51448 C31.13602,52.74842 31.39958,53 32.53768,53 L33.29242,53 Z M41.35496,53.14376 C42.7686,53.14376 43.95462,52.5208 44.52966,51.33478 L43.5473,50.97538 C43.17592,51.70616 42.4691,52.19734 41.42684,52.19734 C39.92934,52.19734 38.8751,50.99934 38.8751,48.9867 C38.8751,46.90218 39.97726,45.80002 41.3909,45.80002 C42.43316,45.80002 43.13998,46.30318 43.49938,47.02198 L44.48174,46.66258 C43.93066,45.50052 42.79256,44.8536 41.4508,44.8536 C39.18658,44.8536 37.72502,46.49486 37.72502,48.9867 C37.72502,51.41864 39.06678,53.14376 41.35496,53.14376 Z M47.48872,53.14376 C48.53098,53.14376 49.15394,52.78436 49.51334,52.18536 L49.75294,53 L50.6754,53 C50.56758,52.43694 50.48372,51.75408 50.47174,50.75974 L50.45976,49.37006 C50.44778,47.70484 49.74096,46.96208 48.0997,46.96208 C47.03348,46.96208 46.14696,47.4892 45.8235,48.39968 L46.79388,48.6872 C46.92566,48.11216 47.39288,47.76474 48.11168,47.76474 C49.07008,47.76474 49.48938,48.3278 49.45344,49.33412 C47.0215,49.60966 45.44014,50.01698 45.44014,51.43062 C45.44014,52.5208 46.3626,53.14376 47.48872,53.14376 Z M47.70436,52.3411 C46.98556,52.3411 46.55428,51.96972 46.55428,51.40666 C46.55428,50.59202 47.71634,50.32846 49.5373,50.13678 L49.5373,50.50816 C49.5373,51.90982 48.6388,52.3411 47.70436,52.3411 Z M53.1313,53 L53.1313,49.77738 C53.1313,48.5075 53.7303,47.82464 54.70068,47.82464 C55.85076,47.82464 56.0065,48.6273 56.0065,49.53778 L56.0065,53 L57.01282,53 L57.01282,49.23828 C57.01282,47.88454 56.4857,46.96208 55.0481,46.96208 C54.04178,46.96208 53.46674,47.39336 53.1313,47.95642 L52.86774,47.05792 L52.12498,47.05792 L52.12498,53 L53.1313,53 Z M61.05008,53.14376 C62.10432,53.14376 62.97886,52.5807 63.42212,51.81398 L62.49966,51.47854 C62.2361,51.9218 61.73294,52.25724 61.08602,52.25724 C60.1995,52.25724 59.37288,51.53844 59.37288,50.04094 C59.37288,48.54344 60.18752,47.8486 61.08602,47.8486 C61.697,47.8486 62.21214,48.16008 62.4757,48.63928 L63.39816,48.30384 C63.0148,47.57306 62.22412,46.96208 61.1579,46.96208 C59.39684,46.96208 58.2827,48.27988 58.2827,50.05292 C58.2827,51.84992 59.34892,53.14376 61.05008,53.14376 Z M67.18384,53.14376 C68.29798,53.14376 69.11262,52.65258 69.5439,51.95774 L68.57352,51.67022 C68.29798,52.02962 67.85472,52.25724 67.18384,52.25724 C66.45306,52.25724 65.39882,51.802 65.3509,50.3045 L69.92726,50.3045 C70.04706,48.60334 69.05272,46.96208 67.15988,46.96208 C65.5306,46.96208 64.2727,48.16008 64.2727,50.04094 C64.2727,51.79002 65.31496,53.14376 67.18384,53.14376 Z M68.86104,49.50184 L65.36288,49.50184 C65.45872,48.30384 66.26138,47.82464 67.15988,47.82464 C68.21412,47.82464 68.84906,48.66324 68.86104,49.50184 Z M72.1196,53 L72.1196,50.44826 C72.1196,48.8669 72.6587,48.00434 74.28798,48.00434 L74.28798,46.96208 C73.29364,46.96208 72.58682,47.44128 72.16752,48.16008 L71.84406,47.05792 L71.11328,47.05792 L71.11328,53 L72.1196,53 Z M80.79312,53 C83.33288,53 85.16582,52.05358 85.16582,48.9867 C85.16582,45.94378 83.33288,44.99736 80.79312,44.99736 L78.61276,44.99736 L78.61276,53 L80.79312,53 Z M80.76916,52.05358 L79.73888,52.05358 L79.73888,45.94378 L80.76916,45.94378 C82.4224,45.94378 84.01574,46.27922 84.01574,48.9867 C84.01574,51.71814 82.4224,52.05358 80.76916,52.05358 Z M89.1312,53.14376 C90.24534,53.14376 91.05998,52.65258 91.49126,51.95774 L90.52088,51.67022 C90.24534,52.02962 89.80208,52.25724 89.1312,52.25724 C88.40042,52.25724 87.34618,51.802 87.29826,50.3045 L91.87462,50.3045 C91.99442,48.60334 91.00008,46.96208 89.10724,46.96208 C87.47796,46.96208 86.22006,48.16008 86.22006,50.04094 C86.22006,51.79002 87.26232,53.14376 89.1312,53.14376 Z M90.8084,49.50184 L87.31024,49.50184 C87.40608,48.30384 88.20874,47.82464 89.10724,47.82464 C90.16148,47.82464 90.79642,48.66324 90.8084,49.50184 Z M95.62436,53 L95.62436,52.11348 L95.08526,52.11348 C94.548556,52.11348 94.481468,51.9778132 94.4749083,51.4629749 L94.47428,47.86058 L95.62436,47.86058 L95.62436,47.05792 L94.47428,47.05792 L94.47428,45.56042 L93.46796,45.56042 L93.46796,47.05792 L92.46164,47.05792 L92.46164,47.86058 L93.46796,47.86058 L93.46796,51.51448 C93.46796,52.74842 93.73152,53 94.86962,53 L95.62436,53 Z M99.46994,53.14376 C100.58408,53.14376 101.39872,52.65258 101.83,51.95774 L100.85962,51.67022 C100.58408,52.02962 100.14082,52.25724 99.46994,52.25724 C98.73916,52.25724 97.68492,51.802 97.637,50.3045 L102.21336,50.3045 C102.33316,48.60334 101.33882,46.96208 99.44598,46.96208 C97.8167,46.96208 96.5588,48.16008 96.5588,50.04094 C96.5588,51.79002 97.60106,53.14376 99.46994,53.14376 Z M101.14714,49.50184 L97.64898,49.50184 C97.74482,48.30384 98.54748,47.82464 99.44598,47.82464 C100.50022,47.82464 101.13516,48.66324 101.14714,49.50184 Z M105.7834,53.14376 C106.83764,53.14376 107.71218,52.5807 108.15544,51.81398 L107.23298,51.47854 C106.96942,51.9218 106.46626,52.25724 105.81934,52.25724 C104.93282,52.25724 104.1062,51.53844 104.1062,50.04094 C104.1062,48.54344 104.92084,47.8486 105.81934,47.8486 C106.43032,47.8486 106.94546,48.16008 107.20902,48.63928 L108.13148,48.30384 C107.74812,47.57306 106.95744,46.96208 105.89122,46.96208 C104.13016,46.96208 103.01602,48.27988 103.01602,50.05292 C103.01602,51.84992 104.08224,53.14376 105.7834,53.14376 Z M111.9531,53 L111.9531,52.11348 L111.414,52.11348 C110.877296,52.11348 110.810208,51.9778132 110.803648,51.4629749 L110.80302,47.86058 L111.9531,47.86058 L111.9531,47.05792 L110.80302,47.05792 L110.80302,45.56042 L109.7967,45.56042 L109.7967,47.05792 L108.79038,47.05792 L108.79038,47.86058 L109.7967,47.86058 L109.7967,51.51448 C109.7967,52.74842 110.06026,53 111.19836,53 L111.9531,53 Z M114.30118,45.9318 C114.72048,45.9318 115.05592,45.59636 115.05592,45.17706 C115.05592,44.76974 114.72048,44.4343 114.30118,44.4343 C113.89386,44.4343 113.55842,44.76974 113.55842,45.17706 C113.55842,45.59636 113.89386,45.9318 114.30118,45.9318 Z M114.80434,53 L114.80434,47.05792 L112.9714,47.05792 L112.9714,47.86058 L113.79802,47.86058 L113.79802,53 L114.80434,53 Z M119.06922,53.14376 C120.44692,53.14376 121.92046,52.19734 121.92046,50.05292 C121.92046,47.9085 120.44692,46.96208 119.06922,46.96208 C117.7035,46.96208 116.21798,47.9085 116.21798,50.05292 C116.21798,52.19734 117.7035,53.14376 119.06922,53.14376 Z M119.06922,52.25724 C118.21864,52.25724 117.29618,51.58636 117.29618,50.05292 C117.29618,48.51948 118.21864,47.8486 119.06922,47.8486 C119.93178,47.8486 120.84226,48.51948 120.84226,50.05292 C120.84226,51.58636 119.93178,52.25724 119.06922,52.25724 Z M124.22062,53 L124.22062,49.77738 C124.22062,48.5075 124.81962,47.82464 125.79,47.82464 C126.94008,47.82464 127.09582,48.6273 127.09582,49.53778 L127.09582,53 L128.10214,53 L128.10214,49.23828 C128.10214,47.88454 127.57502,46.96208 126.13742,46.96208 C125.1311,46.96208 124.55606,47.39336 124.22062,47.95642 L123.95706,47.05792 L123.2143,47.05792 L123.2143,53 L124.22062,53 Z M133.58898,53 L134.19996,51.25092 L137.84188,51.25092 L138.45286,53 L139.65086,53 L136.65586,44.98538 L135.39796,44.98538 L132.39098,53 L133.58898,53 Z M137.49446,50.28054 L134.54738,50.28054 L136.02092,46.12348 L137.49446,50.28054 Z M142.63388,53.14376 C143.86782,53.14376 145.05384,52.49684 145.05384,51.37072 C145.05384,48.84294 141.28014,50.02896 141.28014,48.59136 C141.28014,48.07622 141.86716,47.80068 142.47814,47.80068 C143.0412,47.80068 143.62822,48.0283 143.83188,48.5075 L144.7783,48.16008 C144.4189,47.33346 143.48446,46.9501 142.55002,46.9501 C141.39994,46.9501 140.26184,47.53712 140.26184,48.60334 C140.26184,50.97538 144.03554,49.77738 144.03554,51.40666 C144.03554,51.94576 143.3407,52.29318 142.63388,52.29318 C141.97498,52.29318 141.29212,52.00566 141.11242,51.29884 L140.14204,51.65824 C140.53738,52.67654 141.6036,53.14376 142.63388,53.14376 Z M148.27646,53.14376 C149.5104,53.14376 150.69642,52.49684 150.69642,51.37072 C150.69642,48.84294 146.92272,50.02896 146.92272,48.59136 C146.92272,48.07622 147.50974,47.80068 148.12072,47.80068 C148.68378,47.80068 149.2708,48.0283 149.47446,48.5075 L150.42088,48.16008 C150.06148,47.33346 149.12704,46.9501 148.1926,46.9501 C147.04252,46.9501 145.90442,47.53712 145.90442,48.60334 C145.90442,50.97538 149.67812,49.77738 149.67812,51.40666 C149.67812,51.94576 148.98328,52.29318 148.27646,52.29318 C147.61756,52.29318 146.9347,52.00566 146.755,51.29884 L145.78462,51.65824 C146.17996,52.67654 147.24618,53.14376 148.27646,53.14376 Z M152.9247,45.9318 C153.344,45.9318 153.67944,45.59636 153.67944,45.17706 C153.67944,44.76974 153.344,44.4343 152.9247,44.4343 C152.51738,44.4343 152.18194,44.76974 152.18194,45.17706 C152.18194,45.59636 152.51738,45.9318 152.9247,45.9318 Z M153.42786,53 L153.42786,47.05792 L151.59492,47.05792 L151.59492,47.86058 L152.42154,47.86058 L152.42154,53 L153.42786,53 Z M157.78858,53 L157.78858,52.11348 L157.24948,52.11348 C156.67444,52.11348 156.6385,51.95774 156.6385,51.34676 L156.6385,47.86058 L157.78858,47.86058 L157.78858,47.05792 L156.6385,47.05792 L156.6385,45.56042 L155.63218,45.56042 L155.63218,47.05792 L154.62586,47.05792 L154.62586,47.86058 L155.63218,47.86058 L155.63218,51.51448 C155.63218,52.74842 155.89574,53 157.03384,53 L157.78858,53 Z M160.7716,53.14376 C161.81386,53.14376 162.43682,52.78436 162.79622,52.18536 L163.03582,53 L163.95828,53 C163.85046,52.43694 163.7666,51.75408 163.75462,50.75974 L163.74264,49.37006 C163.73066,47.70484 163.02384,46.96208 161.38258,46.96208 C160.31636,46.96208 159.42984,47.4892 159.10638,48.39968 L160.07676,48.6872 C160.20854,48.11216 160.67576,47.76474 161.39456,47.76474 C162.35296,47.76474 162.77226,48.3278 162.73632,49.33412 C160.30438,49.60966 158.72302,50.01698 158.72302,51.43062 C158.72302,52.5208 159.64548,53.14376 160.7716,53.14376 Z M160.98724,52.3411 C160.26844,52.3411 159.83716,51.96972 159.83716,51.40666 C159.83716,50.59202 160.99922,50.32846 162.82018,50.13678 L162.82018,50.50816 C162.82018,51.90982 161.92168,52.3411 160.98724,52.3411 Z M166.41418,53 L166.41418,49.77738 C166.41418,48.5075 167.01318,47.82464 167.98356,47.82464 C169.13364,47.82464 169.28938,48.6273 169.28938,49.53778 L169.28938,53 L170.2957,53 L170.2957,49.23828 C170.2957,47.88454 169.76858,46.96208 168.33098,46.96208 C167.32466,46.96208 166.74962,47.39336 166.41418,47.95642 L166.15062,47.05792 L165.40786,47.05792 L165.40786,53 L166.41418,53 Z M174.51266,53 L174.51266,52.11348 L173.97356,52.11348 C173.39852,52.11348 173.36258,51.95774 173.36258,51.34676 L173.36258,47.86058 L174.51266,47.86058 L174.51266,47.05792 L173.36258,47.05792 L173.36258,45.56042 L172.35626,45.56042 L172.35626,47.05792 L171.34994,47.05792 L171.34994,47.86058 L172.35626,47.86058 L172.35626,51.51448 C172.35626,52.74842 172.61982,53 173.75792,53 L174.51266,53 Z" id="BreastCancerDetectionAssitant" fill="#000000" fill-rule="nonzero"></path>
            <rect id="Rectangle" x="0" y="0" width="175" height="55"></rect>
        </g>
    </g>
</svg>
