<?xml version="1.0" encoding="UTF-8" standalone="no"?>
<!DOCTYPE svg PUBLIC "-//W3C//DTD SVG 1.1//EN"
 "http://www.w3.org/Graphics/SVG/1.1/DTD/svg11.dtd">
<!-- Generated by graphviz version 2.40.1 (20161225.0304)
 -->
<!-- Title: BreastCancerDiagnosis Pages: 1 -->
<svg width="489pt" height="116pt"
 viewBox="0.00 0.00 489.00 116.00" xmlns="http://www.w3.org/2000/svg" xmlns:xlink="http://www.w3.org/1999/xlink">
<g id="graph0" class="graph" transform="scale(1 1) rotate(0) translate(4 112)">
<title>BreastCancerDiagnosis</title>
<!-- doctor -->
<g id="node1" class="node">
<title>doctor</title>
<polygon fill="#cb6077" stroke="#000000" points="314,-36 176,-36 176,0 314,0 314,-36"/>
<text text-anchor="middle" x="245" y="-21.2" font-family="Helvetica,sans-Serif" font-size="11.00" fill="#000000">Breast Cancer Diagnosis</text>
<text text-anchor="middle" x="245" y="-9.2" font-family="Helvetica,sans-Serif" font-size="11.00" fill="#000000">(Doctor)</text>
</g>
<!-- manualExam -->
<g id="node2" class="node">
<title>manualExam</title>
<polygon fill="#d0c8c6" stroke="#000000" points="84,-108 0,-108 0,-72 84,-72 84,-108"/>
<text text-anchor="middle" x="42" y="-93.2" font-family="Helvetica,sans-Serif" font-size="11.00" fill="#000000">Manual Exam</text>
<text text-anchor="middle" x="42" y="-81.2" font-family="Helvetica,sans-Serif" font-size="11.00" fill="#000000">(Doctor)</text>
</g>
<!-- manualExam&#45;&gt;doctor -->
<g id="edge1" class="edge">
<title>manualExam&#45;&gt;doctor</title>
<path fill="none" stroke="#000000" d="M84.0617,-75.0816C113.0042,-64.8163 151.9021,-51.02 184.2063,-39.5623"/>
<polygon fill="#000000" stroke="#000000" points="185.747,-42.7295 194.0018,-36.088 183.407,-36.1322 185.747,-42.7295"/>
</g>
<!-- mammogram -->
<g id="node3" class="node">
<title>mammogram</title>
<polygon fill="#a89bb9" stroke="#000000" points="183.5,-108 102.5,-108 102.5,-72 183.5,-72 183.5,-108"/>
<text text-anchor="middle" x="143" y="-93.2" font-family="Helvetica,sans-Serif" font-size="11.00" fill="#000000">Mammogram</text>
<text text-anchor="middle" x="143" y="-81.2" font-family="Helvetica,sans-Serif" font-size="11.00" fill="#000000">(Radiologist)</text>
</g>
<!-- mammogram&#45;&gt;doctor -->
<g id="edge2" class="edge">
<title>mammogram&#45;&gt;doctor</title>
<path fill="none" stroke="#000000" d="M168.7389,-71.8314C181.5437,-62.7927 197.1909,-51.7476 210.9719,-42.0198"/>
<polygon fill="#000000" stroke="#000000" points="213.118,-44.7891 219.2693,-36.1628 209.0812,-39.0703 213.118,-44.7891"/>
</g>
<!-- ultrasound -->
<g id="node4" class="node">
<title>ultrasound</title>
<polygon fill="#a89bb9" stroke="#000000" points="288.5,-108 201.5,-108 201.5,-72 288.5,-72 288.5,-108"/>
<text text-anchor="middle" x="245" y="-93.2" font-family="Helvetica,sans-Serif" font-size="11.00" fill="#000000">Ultrasound</text>
<text text-anchor="middle" x="245" y="-81.2" font-family="Helvetica,sans-Serif" font-size="11.00" fill="#000000">(Sonographer)</text>
</g>
<!-- ultrasound&#45;&gt;doctor -->
<g id="edge3" class="edge">
<title>ultrasound&#45;&gt;doctor</title>
<path fill="none" stroke="#000000" d="M245,-71.8314C245,-64.131 245,-54.9743 245,-46.4166"/>
<polygon fill="#000000" stroke="#000000" points="248.5001,-46.4132 245,-36.4133 241.5001,-46.4133 248.5001,-46.4132"/>
</g>
<!-- mri -->
<g id="node5" class="node">
<title>mri</title>
<polygon fill="#a89bb9" stroke="#000000" points="385,-108 307,-108 307,-72 385,-72 385,-108"/>
<text text-anchor="middle" x="346" y="-93.2" font-family="Helvetica,sans-Serif" font-size="11.00" fill="#000000">MRI</text>
<text text-anchor="middle" x="346" y="-81.2" font-family="Helvetica,sans-Serif" font-size="11.00" fill="#000000">(Radiologist)</text>
</g>
<!-- mri&#45;&gt;doctor -->
<g id="edge4" class="edge">
<title>mri&#45;&gt;doctor</title>
<path fill="none" stroke="#000000" d="M320.5134,-71.8314C307.8341,-62.7927 292.3404,-51.7476 278.6945,-42.0198"/>
<polygon fill="#000000" stroke="#000000" points="280.6529,-39.1176 270.4784,-36.1628 276.5895,-44.8176 280.6529,-39.1176"/>
</g>
<!-- biopsy -->
<g id="node6" class="node">
<title>biopsy</title>
<polygon fill="#a89bb9" stroke="#000000" points="481,-108 403,-108 403,-72 481,-72 481,-108"/>
<text text-anchor="middle" x="442" y="-93.2" font-family="Helvetica,sans-Serif" font-size="11.00" fill="#000000">Biopsy</text>
<text text-anchor="middle" x="442" y="-81.2" font-family="Helvetica,sans-Serif" font-size="11.00" fill="#000000">(Pathologist)</text>
</g>
<!-- biopsy&#45;&gt;doctor -->
<g id="edge5" class="edge">
<title>biopsy&#45;&gt;doctor</title>
<path fill="none" stroke="#000000" d="M402.9807,-75.3266C399.9434,-74.197 396.9227,-73.0776 394,-72 364.8,-61.2341 332.3158,-49.44 305.1498,-39.6279"/>
<polygon fill="#000000" stroke="#000000" points="305.9922,-36.211 295.3978,-36.1082 303.6157,-42.7953 305.9922,-36.211"/>
</g>
</g>
</svg>
