<?xml version="1.0" encoding="UTF-8" standalone="no"?>
<!DOCTYPE svg PUBLIC "-//W3C//DTD SVG 1.1//EN"
 "http://www.w3.org/Graphics/SVG/1.1/DTD/svg11.dtd">
<!-- Generated by graphviz version 2.40.1 (20161225.0304)
 -->
<!-- Title: BreastCancerDiagnosis Pages: 1 -->
<svg width="445pt" height="152pt"
 viewBox="0.00 0.00 445.00 152.00" xmlns="http://www.w3.org/2000/svg" xmlns:xlink="http://www.w3.org/1999/xlink">
<g id="graph0" class="graph" transform="scale(1 1) rotate(0) translate(4 148)">
<title>BreastCancerDiagnosis</title>
<!-- model_1 -->
<g id="node1" class="node">
<title>model_1</title>
<polygon fill="#a89bb9" stroke="#000000" points="105,-144 0,-144 0,-108 105,-108 105,-144"/>
<text text-anchor="middle" x="52.5" y="-129.2" font-family="Helvetica,sans-Serif" font-size="11.00" fill="#000000">Detection Model 1</text>
<text text-anchor="middle" x="52.5" y="-117.2" font-family="Helvetica,sans-Serif" font-size="11.00" fill="#000000">(PyTorch)</text>
</g>
<!-- model_store -->
<g id="node4" class="node">
<title>model_store</title>
<polygon fill="#d0c8c6" stroke="#000000" points="222,-90 141,-90 141,-54 222,-54 222,-90"/>
<text text-anchor="middle" x="181.5" y="-75.2" font-family="Helvetica,sans-Serif" font-size="11.00" fill="#000000">Model Store</text>
<text text-anchor="middle" x="181.5" y="-63.2" font-family="Helvetica,sans-Serif" font-size="11.00" fill="#000000">(TorchServe)</text>
</g>
<!-- model_1&#45;&gt;model_store -->
<g id="edge1" class="edge">
<title>model_1&#45;&gt;model_store</title>
<path fill="none" stroke="#000000" d="M95.814,-107.8686C107.2496,-103.0816 119.6847,-97.8762 131.4445,-92.9535"/>
<polygon fill="#000000" stroke="#000000" points="132.8259,-96.1696 140.6988,-89.0796 130.1229,-89.7125 132.8259,-96.1696"/>
</g>
<!-- model_2 -->
<g id="node2" class="node">
<title>model_2</title>
<polygon fill="#a89bb9" stroke="#000000" points="105,-90 0,-90 0,-54 105,-54 105,-90"/>
<text text-anchor="middle" x="52.5" y="-75.2" font-family="Helvetica,sans-Serif" font-size="11.00" fill="#000000">Detection Model 2</text>
<text text-anchor="middle" x="52.5" y="-63.2" font-family="Helvetica,sans-Serif" font-size="11.00" fill="#000000">(PyTorch)</text>
</g>
<!-- model_2&#45;&gt;model_store -->
<g id="edge2" class="edge">
<title>model_2&#45;&gt;model_store</title>
<path fill="none" stroke="#000000" d="M105.3414,-72C113.6585,-72 122.243,-72 130.5168,-72"/>
<polygon fill="#000000" stroke="#000000" points="130.7874,-75.5001 140.7874,-72 130.7873,-68.5001 130.7874,-75.5001"/>
</g>
<!-- model_3 -->
<g id="node3" class="node">
<title>model_3</title>
<polygon fill="#a89bb9" stroke="#000000" points="105,-36 0,-36 0,0 105,0 105,-36"/>
<text text-anchor="middle" x="52.5" y="-21.2" font-family="Helvetica,sans-Serif" font-size="11.00" fill="#000000">Detection Model 3</text>
<text text-anchor="middle" x="52.5" y="-9.2" font-family="Helvetica,sans-Serif" font-size="11.00" fill="#000000">(PyTorch)</text>
</g>
<!-- model_3&#45;&gt;model_store -->
<g id="edge3" class="edge">
<title>model_3&#45;&gt;model_store</title>
<path fill="none" stroke="#000000" d="M95.814,-36.1314C107.2496,-40.9184 119.6847,-46.1238 131.4445,-51.0465"/>
<polygon fill="#000000" stroke="#000000" points="130.1229,-54.2875 140.6988,-54.9204 132.8259,-47.8304 130.1229,-54.2875"/>
</g>
<!-- api -->
<g id="node5" class="node">
<title>api</title>
<polygon fill="#8ab3b5" stroke="#000000" points="339,-90 258,-90 258,-54 339,-54 339,-90"/>
<text text-anchor="middle" x="298.5" y="-75.2" font-family="Helvetica,sans-Serif" font-size="11.00" fill="#000000">API</text>
<text text-anchor="middle" x="298.5" y="-63.2" font-family="Helvetica,sans-Serif" font-size="11.00" fill="#000000">(TorchServe)</text>
</g>
<!-- model_store&#45;&gt;api -->
<g id="edge4" class="edge">
<title>model_store&#45;&gt;api</title>
<path fill="none" stroke="#000000" d="M222.0926,-72C230.3509,-72 239.1362,-72 247.6976,-72"/>
<polygon fill="#000000" stroke="#000000" points="247.9792,-75.5001 257.9792,-72 247.9792,-68.5001 247.9792,-75.5001"/>
</g>
<!-- webapp -->
<g id="node6" class="node">
<title>webapp</title>
<polygon fill="#cb6077" stroke="#000000" points="437,-90 375,-90 375,-54 437,-54 437,-90"/>
<text text-anchor="middle" x="406" y="-75.2" font-family="Helvetica,sans-Serif" font-size="11.00" fill="#000000">Web App</text>
<text text-anchor="middle" x="406" y="-63.2" font-family="Helvetica,sans-Serif" font-size="11.00" fill="#000000">(Django)</text>
</g>
<!-- api&#45;&gt;webapp -->
<g id="edge5" class="edge">
<title>api&#45;&gt;webapp</title>
<path fill="none" stroke="#000000" d="M349.2317,-72C354.3875,-72 359.5804,-72 364.6199,-72"/>
<polygon fill="#000000" stroke="#000000" points="349.1412,-68.5001 339.1411,-72 349.1411,-75.5001 349.1412,-68.5001"/>
<polygon fill="#000000" stroke="#000000" points="364.6877,-75.5001 374.6876,-72 364.6876,-68.5001 364.6877,-75.5001"/>
</g>
</g>
</svg>
